<svg xmlns="http://www.w3.org/2000/svg" viewBox="0 0 100 100" role="img" aria-label="Ours Proche+ curiosité">
  <!-- Miroir BearFace produit — src/components/mascot/BearFace.tsx -->
  <g transform="rotate(-8 50 48)">
    <ellipse cx="22" cy="28" rx="12" ry="11" fill="#6B4423"/>
    <ellipse cx="78" cy="28" rx="12" ry="11" fill="#6B4423"/>
    <ellipse cx="22" cy="28" rx="6" ry="5.5" fill="#A67B5B"/>
    <ellipse cx="78" cy="28" rx="6" ry="5.5" fill="#A67B5B"/>
    <ellipse cx="50" cy="52" rx="34" ry="32" fill="#8B5E3C"/>
    <ellipse cx="50" cy="60" rx="16" ry="13" fill="#C4A484"/>
    <ellipse cx="50" cy="56" rx="6" ry="4.5" fill="#3D2B1F"/>
    <ellipse cx="48.5" cy="54.5" rx="1.5" ry="1" fill="#6B5344" opacity="0.5"/>
    <circle cx="38" cy="46" r="3.2" fill="#2D1F14"/>
    <circle cx="62" cy="46" r="3.2" fill="#2D1F14"/>
    <circle cx="37" cy="45" r="1" fill="#F5EDE4" opacity="0.7"/>
    <circle cx="61" cy="45" r="1" fill="#F5EDE4" opacity="0.7"/>
    <path d="M28 38 Q36 32 42 38" fill="none" stroke="#5C3A21" stroke-width="2.2" stroke-linecap="round"/>
    <path d="M58 36 Q64 34 72 38" fill="none" stroke="#5C3A21" stroke-width="2.2" stroke-linecap="round"/>
    <path d="M46 64 Q50 62 54 64" fill="none" stroke="#3D2B1F" stroke-width="2" stroke-linecap="round"/>
    <text x="80" y="22" font-size="16" fill="#2A9D8F" font-family="Nunito, sans-serif" font-weight="700">?</text>
  </g>
</svg>
